# xmcd CD database file
#
# Track frame offsets:
#	150
#	24822
#	80113
#	94570
#	179953
#	190873
#	215388
#	266134
#
# Disc length: 3833 seconds
#
# Revision: 0
# Processed by: cddbd v1.5.1PL2 Copyright (c) Steve Scherf et al.
# Submitted via: CDex 1.50
#
DISCID=6c0ef708
DTITLE=Φなる・あぷろーち - Φなる・あぷろーち DVD Vol.1 初回限定版特典 スペシャルCD「みゆみゆ＆だいすけ ラブラブアプローチ」 Vol.1
DYEAR=2005
DGENRE=Anime
TTITLE0=オープニングトーク
TTITLE1=Φなるらぶらぶトーク
TTITLE2=Φなる大辞典
TTITLE3=Φなるゲストタイム-1
TTITLE4=美紀のΦなる声優あぷろーち
TTITLE5=Φなるゲストタイム-2
TTITLE6=Φなる「もしも」のコーナー
TTITLE7=エンディング
EXTD=YEAR: 2005
EXTT0=
EXTT1=
EXTT2=
EXTT3=
EXTT4=
EXTT5=
EXTT6=
EXTT7=
PLAYORDER=
